<svg xmlns="http://www.w3.org/2000/svg" xmlns:xlink="http://www.w3.org/1999/xlink" width="500" zoomAndPan="magnify" viewBox="0 0 375 374.999991" height="500" preserveAspectRatio="xMidYMid meet" version="1.0"><defs><clipPath id="97ebc1b2bc"><path d="M 202 142 L 329 142 L 329 249 L 202 249 Z M 202 142 " clip-rule="nonzero"/></clipPath><clipPath id="b9da1d87a2"><path d="M 260.875 105.136719 L 396.941406 170.03125 L 325.589844 319.636719 L 189.523438 254.738281 Z M 260.875 105.136719 " clip-rule="nonzero"/></clipPath><clipPath id="33acd06604"><path d="M 260.875 105.136719 L 396.941406 170.03125 L 325.589844 319.636719 L 189.523438 254.738281 Z M 260.875 105.136719 " clip-rule="nonzero"/></clipPath><clipPath id="bd92c13ba7"><path d="M 198 164 L 355 164 L 355 260 L 198 260 Z M 198 164 " clip-rule="nonzero"/></clipPath><clipPath id="85b957833b"><path d="M 260.875 105.136719 L 396.941406 170.03125 L 325.589844 319.636719 L 189.523438 254.738281 Z M 260.875 105.136719 " clip-rule="nonzero"/></clipPath><clipPath id="f18eba48a0"><path d="M 260.875 105.136719 L 396.941406 170.03125 L 325.589844 319.636719 L 189.523438 254.738281 Z M 260.875 105.136719 " clip-rule="nonzero"/></clipPath><clipPath id="bb470c6938"><path d="M 206 121 L 304 121 L 304 238 L 206 238 Z M 206 121 " clip-rule="nonzero"/></clipPath><clipPath id="d87ac73f03"><path d="M 260.875 105.136719 L 396.941406 170.03125 L 325.589844 319.636719 L 189.523438 254.738281 Z M 260.875 105.136719 " clip-rule="nonzero"/></clipPath><clipPath id="e2d0edc9ca"><path d="M 260.875 105.136719 L 396.941406 170.03125 L 325.589844 319.636719 L 189.523438 254.738281 Z M 260.875 105.136719 " clip-rule="nonzero"/></clipPath><clipPath id="dafe7ab944"><path d="M 46 141 L 173 141 L 173 250 L 46 250 Z M 46 141 " clip-rule="nonzero"/></clipPath><clipPath id="4169fa8b6c"><path d="M -21.980469 169.59375 L 114.367188 105.292969 L 185.070312 255.207031 L 48.722656 319.511719 Z M -21.980469 169.59375 " clip-rule="nonzero"/></clipPath><clipPath id="03d089a799"><path d="M 114.398438 105.277344 L -21.949219 169.582031 L 48.753906 319.496094 L 185.101562 255.191406 Z M 114.398438 105.277344 " clip-rule="nonzero"/></clipPath><clipPath id="620f805c42"><path d="M 20 163 L 177 163 L 177 260 L 20 260 Z M 20 163 " clip-rule="nonzero"/></clipPath><clipPath id="2bd43c160c"><path d="M -21.980469 169.59375 L 114.367188 105.292969 L 185.070312 255.207031 L 48.722656 319.511719 Z M -21.980469 169.59375 " clip-rule="nonzero"/></clipPath><clipPath id="394137b3fc"><path d="M 114.398438 105.277344 L -21.949219 169.582031 L 48.753906 319.496094 L 185.101562 255.191406 Z M 114.398438 105.277344 " clip-rule="nonzero"/></clipPath><clipPath id="88a9bad77e"><path d="M 71 121 L 169 121 L 169 238 L 71 238 Z M 71 121 " clip-rule="nonzero"/></clipPath><clipPath id="e258093bdf"><path d="M -21.980469 169.59375 L 114.367188 105.292969 L 185.070312 255.207031 L 48.722656 319.511719 Z M -21.980469 169.59375 " clip-rule="nonzero"/></clipPath><clipPath id="58adcd4297"><path d="M 114.398438 105.277344 L -21.949219 169.582031 L 48.753906 319.496094 L 185.101562 255.191406 Z M 114.398438 105.277344 " clip-rule="nonzero"/></clipPath><clipPath id="0a2685c3ef"><path d="M 116 55.179688 L 229 55.179688 L 229 93 L 116 93 Z M 116 55.179688 " clip-rule="nonzero"/></clipPath><clipPath id="d481f92643"><path d="M 140 90 L 233.140625 90 L 233.140625 227.679688 L 140 227.679688 Z M 140 90 " clip-rule="nonzero"/></clipPath></defs><g clip-path="url(#97ebc1b2bc)"><g clip-path="url(#b9da1d87a2)"><g clip-path="url(#33acd06604)"><path fill="#38b6ff" d="M 328.574219 237.628906 L 320.34375 142.09375 C 320.34375 142.09375 310.746094 143.242188 299.398438 146.769531 L 300.21875 156.335938 C 303.28125 156.1875 306.515625 156.261719 309.910156 156.625 L 317 225.851562 C 317 225.851562 238.472656 216.789062 202.210938 248.925781 C 202.210938 248.925781 247.53125 221.75 328.574219 237.628906 " fill-opacity="1" fill-rule="nonzero"/></g></g></g><g clip-path="url(#bd92c13ba7)"><g clip-path="url(#85b957833b)"><g clip-path="url(#f18eba48a0)"><path fill="#5ce1e6" d="M 345.921875 164.101562 C 345.921875 164.101562 336.328125 165.253906 324.980469 168.78125 L 325.800781 178.34375 C 328.863281 178.195312 332.097656 178.269531 335.492188 178.632812 L 342.582031 247.863281 C 342.582031 247.863281 249.539062 226.917969 198.402344 258.984375 C 198.402344 258.984375 254.785156 239.261719 354.15625 259.640625 L 345.921875 164.101562 " fill-opacity="1" fill-rule="nonzero"/></g></g></g><g clip-path="url(#bb470c6938)"><g clip-path="url(#d87ac73f03)"><g clip-path="url(#e2d0edc9ca)"><path fill="#0cc0df" d="M 206.699219 237.070312 C 206.699219 237.070312 245.554688 206.191406 303.125 216.902344 L 294.894531 121.363281 C 294.894531 121.363281 251.617188 126.542969 240.152344 148.691406 C 240.152344 148.691406 257.203125 132.96875 284.457031 135.898438 L 291.550781 205.125 C 291.550781 205.125 235.878906 203.144531 206.699219 237.070312 " fill-opacity="1" fill-rule="nonzero"/></g></g></g><g clip-path="url(#dafe7ab944)"><g clip-path="url(#4169fa8b6c)"><g clip-path="url(#03d089a799)"><path fill="#38b6ff" d="M 46.125 237.476562 L 54.773438 141.972656 C 54.773438 141.972656 64.363281 143.167969 75.699219 146.742188 L 74.832031 156.304688 C 71.773438 156.144531 68.539062 156.203125 65.144531 156.554688 L 57.75 225.75 C 57.75 225.75 136.3125 217.027344 172.4375 249.320312 C 172.4375 249.320312 127.234375 221.945312 46.125 237.476562 " fill-opacity="1" fill-rule="nonzero"/></g></g></g><g clip-path="url(#620f805c42)"><g clip-path="url(#2bd43c160c)"><g clip-path="url(#394137b3fc)"><path fill="#5ce1e6" d="M 29.097656 163.875 C 29.097656 163.875 38.683594 165.066406 50.019531 168.644531 L 49.15625 178.203125 C 46.09375 178.042969 42.859375 178.101562 39.464844 178.449219 L 32.074219 247.648438 C 32.074219 247.648438 125.207031 227.105469 176.203125 259.394531 C 176.203125 259.394531 119.90625 239.429688 20.449219 259.375 L 29.097656 163.875 " fill-opacity="1" fill-rule="nonzero"/></g></g></g><g clip-path="url(#88a9bad77e)"><g clip-path="url(#e258093bdf)"><g clip-path="url(#58adcd4297)"><path fill="#0cc0df" d="M 168.003906 237.445312 C 168.003906 237.445312 129.277344 206.398438 71.664062 216.859375 L 80.3125 121.355469 C 80.3125 121.355469 123.5625 126.722656 134.933594 148.925781 C 134.933594 148.925781 117.949219 133.125 90.683594 135.933594 L 83.289062 205.132812 C 83.289062 205.132812 138.96875 203.394531 168.003906 237.445312 " fill-opacity="1" fill-rule="nonzero"/></g></g></g><g clip-path="url(#0a2685c3ef)"><path fill="#5ce1e6" d="M 228.820312 74.492188 C 228.699219 76.371094 227.386719 77.96875 225.613281 78.609375 L 188.488281 92.054688 C 187.976562 92.238281 187.4375 92.335938 186.898438 92.335938 C 186.363281 92.335938 185.824219 92.238281 185.3125 92.054688 L 150.765625 79.546875 C 149.675781 79.148438 149.140625 77.894531 149.648438 76.820312 C 150.09375 75.878906 151.222656 75.484375 152.199219 75.835938 L 186.664062 88.316406 C 186.816406 88.371094 186.980469 88.371094 187.132812 88.316406 L 224.402344 74.820312 C 224.769531 74.6875 224.851562 74.398438 224.851562 74.183594 C 224.855469 74.003906 224.800781 73.683594 224.414062 73.539062 L 187.144531 59.308594 C 186.988281 59.25 186.8125 59.25 186.65625 59.308594 L 160.882812 69.148438 C 161.800781 69.476562 162.742188 69.832031 163.699219 70.21875 C 177.375 75.722656 186.742188 71.097656 190.113281 68.875 C 190.441406 68.65625 190.820312 68.546875 191.199219 68.546875 C 191.75 68.546875 192.292969 68.777344 192.683594 69.21875 C 193.488281 70.128906 193.296875 71.535156 192.277344 72.199219 C 188.175781 74.886719 177.480469 80.050781 162.214844 73.910156 C 140.835938 65.300781 132.425781 72.683594 129.757812 76.359375 L 132.207031 77.84375 L 126.199219 87.519531 C 124.679688 89.96875 121.5 90.789062 118.984375 89.375 C 116.328125 87.875 115.445312 84.472656 117.035156 81.875 L 122.945312 72.230469 L 126.398438 74.324219 C 129.273438 70.351562 137.183594 63.039062 154.640625 67.277344 L 185.238281 55.597656 C 186.308594 55.1875 187.488281 55.1875 188.5625 55.597656 L 225.832031 69.824219 C 227.753906 70.558594 228.953125 72.410156 228.820312 74.492188 Z M 228.820312 74.492188 " fill-opacity="1" fill-rule="nonzero"/></g><g clip-path="url(#d481f92643)"><path fill="#5ce1e6" d="M 204.761719 90.722656 L 188.488281 96.617188 C 187.976562 96.800781 187.4375 96.894531 186.898438 96.894531 C 186.363281 96.894531 185.824219 96.800781 185.3125 96.617188 L 168.46875 90.515625 C 160.878906 116.753906 140.097656 137.949219 140.097656 137.949219 C 146.09375 144.980469 151.972656 153.972656 157.476562 163.972656 L 174.164062 199.964844 C 177.277344 207.945312 182.261719 220.195312 184.566406 227.6875 L 184.050781 189.503906 C 184.308594 183.847656 184.316406 155.339844 184.175781 142.835938 C 182.355469 141.910156 181.109375 140.027344 181.109375 137.851562 C 181.109375 134.800781 183.550781 132.328125 186.585938 132.265625 C 189.617188 132.328125 192.058594 134.800781 192.058594 137.851562 C 192.058594 140.027344 190.8125 141.910156 188.992188 142.835938 C 188.851562 155.339844 188.859375 183.847656 189.117188 189.503906 L 188.601562 227.6875 C 190.90625 220.191406 195.890625 207.945312 199.003906 199.964844 L 215.691406 163.972656 C 221.195312 153.972656 227.074219 144.980469 233.070312 137.949219 C 233.070312 137.953125 212.398438 116.867188 204.761719 90.722656 Z M 204.761719 90.722656 " fill-opacity="1" fill-rule="nonzero"/></g></svg>